<svg width="21" height="20" viewBox="0 0 21 20" fill="none" xmlns="http://www.w3.org/2000/svg">
<g clip-path="url(#clip0_29_1171)">
<path d="M4.04176 -1.52588e-05H16.9584C18.9168 -1.52588e-05 20.5001 1.58332 20.5001 3.54165V15.9583C20.5001 17.9167 18.9168 19.5 16.9584 19.5H4.04176C2.08342 19.5 0.500092 17.9167 0.500092 15.9583V3.54165C0.500092 1.58332 2.08342 -1.52588e-05 4.04176 -1.52588e-05Z" fill="#470137"/>
<path d="M11.0167 5.12419L8.51666 9.24919L11.1833 13.6242C11.2 13.6575 11.2083 13.6909 11.2 13.7242C11.1917 13.7575 11.1583 13.7325 11.1083 13.7409H9.19999C9.06666 13.7409 8.97499 13.7325 8.91666 13.6492C8.74166 13.2992 8.55833 12.9575 8.38333 12.6075C8.20833 12.2659 8.01666 11.9159 7.81666 11.5575C7.61666 11.1992 7.41666 10.8409 7.21666 10.4742H7.19999C7.02499 10.8325 6.83333 11.1909 6.64166 11.5492C6.44999 11.9075 6.25833 12.2659 6.07499 12.6159C5.88333 12.9659 5.69166 13.3242 5.49999 13.6659C5.46666 13.7492 5.39999 13.7575 5.30833 13.7575H3.47499C3.44166 13.7575 3.41666 13.7742 3.41666 13.7325C3.40833 13.6992 3.41666 13.6659 3.43333 13.6409L6.02499 9.39086L3.49999 5.11586C3.47499 5.08252 3.46666 5.04919 3.48333 5.03252C3.49999 5.00752 3.53333 4.99919 3.56666 4.99919H5.45833C5.49999 4.99919 5.54166 5.00752 5.57499 5.01586C5.60833 5.03252 5.63333 5.05752 5.65833 5.09086C5.81666 5.44919 5.99999 5.80752 6.19166 6.16586C6.39166 6.52419 6.58333 6.87419 6.79166 7.22419C6.99166 7.57419 7.17499 7.92419 7.34999 8.28253H7.36666C7.54166 7.91586 7.72499 7.55752 7.90833 7.20752C8.09166 6.85752 8.28333 6.50752 8.47499 6.15752C8.66666 5.80752 8.84999 5.44919 9.03333 5.10752C9.04166 5.07419 9.05833 5.04086 9.08333 5.02419C9.11666 5.00752 9.14999 4.99919 9.19166 5.00752H10.95C10.9917 4.99919 11.0333 5.02419 11.0417 5.06586C11.05 5.07419 11.0333 5.10752 11.0167 5.12419Z" fill="#FF61F6"/>
<path d="M14.8666 13.9166C14.2499 13.9249 13.6332 13.7999 13.0749 13.5416C12.5499 13.2999 12.1166 12.8999 11.8166 12.4083C11.5082 11.8999 11.3582 11.2666 11.3582 10.5083C11.3499 9.8916 11.5082 9.28326 11.8166 8.74993C12.1332 8.20826 12.5916 7.75826 13.1416 7.45826C13.7249 7.13326 14.4249 6.97493 15.2499 6.97493C15.2916 6.97493 15.3499 6.97493 15.4249 6.98326C15.4999 6.9916 15.5832 6.9916 15.6832 6.99993V4.3666C15.6832 4.30826 15.7082 4.27493 15.7666 4.27493H17.4582C17.4999 4.2666 17.5332 4.29993 17.5416 4.33326C17.5416 4.3416 17.5416 4.34993 17.5416 4.34993V12.2833C17.5416 12.4333 17.5499 12.5999 17.5582 12.7833C17.5749 12.9583 17.5832 13.1249 17.5916 13.2666C17.5916 13.3249 17.5666 13.3749 17.5082 13.3999C17.0749 13.5833 16.6166 13.7166 16.1499 13.7999C15.7249 13.8749 15.2999 13.9166 14.8666 13.9166ZM15.6832 12.2499V8.58326C15.6082 8.5666 15.5332 8.54993 15.4582 8.5416C15.3666 8.53326 15.2749 8.52493 15.1832 8.52493C14.8582 8.52493 14.5332 8.5916 14.2416 8.7416C13.9582 8.88326 13.7166 9.0916 13.5332 9.35826C13.3499 9.62493 13.2582 9.98326 13.2582 10.4166C13.2499 10.7083 13.2999 10.9999 13.3999 11.2749C13.4832 11.4999 13.6082 11.6999 13.7749 11.8666C13.9332 12.0166 14.1249 12.1333 14.3416 12.1999C14.5666 12.2749 14.7999 12.3083 15.0332 12.3083C15.1582 12.3083 15.2749 12.2999 15.3832 12.2916C15.4916 12.2999 15.5832 12.2833 15.6832 12.2499Z" fill="#FF61F6"/>
</g>
<defs>
<clipPath id="clip0_29_1171">
<rect width="20" height="19.5" fill="white" transform="translate(0.500092 -1.52588e-05)"/>
</clipPath>
</defs>
</svg>
