<svg width="21" height="21" viewBox="0 0 21 21" fill="none" xmlns="http://www.w3.org/2000/svg">
<path d="M6.42682 9.73891C6.33504 9.6191 6.19955 9.54052 6.04998 9.52037C5.9004 9.50022 5.74894 9.54014 5.62874 9.6314C5.55802 9.68717 5.50097 9.75836 5.46195 9.83954L0.561817 19.6426C0.492414 19.7815 0.481014 19.9423 0.530123 20.0896C0.579232 20.2369 0.684831 20.3587 0.823708 20.4282C0.904885 20.4693 0.99463 20.4906 1.0856 20.4903H7.91271C8.02206 20.4931 8.12985 20.4639 8.22288 20.4064C8.31591 20.3488 8.39015 20.2654 8.43649 20.1663C9.90998 17.1229 9.01679 12.4957 6.42682 9.73891Z" fill="url(#paint0_linear_29_1153)"/>
<path d="M10.0284 0.818035C8.80689 2.6978 8.09498 4.86283 7.96256 7.10072C7.83013 9.33861 8.28175 11.5725 9.27309 13.5832L12.5647 20.1663C12.6133 20.2636 12.688 20.3455 12.7805 20.4027C12.8731 20.4599 12.9797 20.4902 13.0884 20.4903H19.9142C19.9912 20.4904 20.0674 20.4754 20.1386 20.446C20.2097 20.4167 20.2744 20.3735 20.3288 20.3191C20.3832 20.2646 20.4264 20.2 20.4558 20.1288C20.4851 20.0577 20.5002 19.9814 20.5 19.9044C20.5 19.8137 20.4793 19.7241 20.4393 19.6425L11.025 0.815279C10.9803 0.720937 10.9098 0.64122 10.8216 0.585397C10.7334 0.529574 10.6311 0.499939 10.5267 0.499939C10.4223 0.499939 10.3201 0.529574 10.2319 0.585397C10.1437 0.64122 10.0731 0.720937 10.0284 0.815279V0.818035Z" fill="#2684FF"/>
<defs>
<linearGradient id="paint0_linear_29_1153" x1="9.1243" y1="11.2372" x2="3.94987" y2="20.1994" gradientUnits="userSpaceOnUse">
<stop stop-color="#0052CC"/>
<stop offset="0.92" stop-color="#2684FF"/>
</linearGradient>
</defs>
</svg>
