<svg width="21" height="22" viewBox="0 0 21 22" fill="none" xmlns="http://www.w3.org/2000/svg">
<g clip-path="url(#clip0_29_1064)">
<path d="M20.2596 10.4198L11.3968 1.49064L10.538 0.625423L3.86634 7.34705L0.815536 10.4198C0.66315 10.5741 0.577606 10.7829 0.577606 11.0006C0.577606 11.2183 0.66315 11.4271 0.815536 11.5814L6.91071 17.7222L10.538 21.3757L17.2088 14.6541L17.3127 14.5504L20.2596 11.586C20.3359 11.5097 20.3966 11.4188 20.4379 11.3187C20.4793 11.2187 20.5006 11.1113 20.5006 11.0029C20.5006 10.8945 20.4793 10.7871 20.4379 10.6871C20.3966 10.587 20.3359 10.4961 20.2596 10.4198ZM10.538 14.0687L7.49273 11.0006L10.538 7.9325L13.5824 11.0006L10.538 14.0687Z" fill="#2684FF"/>
<path d="M10.5373 7.93186C9.57957 6.96717 9.03967 5.65984 9.03553 4.29541C9.0314 2.93099 9.56337 1.62035 10.5152 0.649793L3.85184 7.3603L7.47823 11.0138L10.5373 7.93186Z" fill="url(#paint0_linear_29_1064)"/>
<path d="M13.59 10.9916L10.5374 14.068C11.4987 15.0368 12.0388 16.3507 12.0388 17.7206C12.0388 19.0906 11.4987 20.4044 10.5374 21.3732L17.2191 14.6451L13.59 10.9916Z" fill="url(#paint1_linear_29_1064)"/>
</g>
<defs>
<linearGradient id="paint0_linear_29_1064" x1="9.99206" y1="4.82765" x2="5.7078" y2="9.07916" gradientUnits="userSpaceOnUse">
<stop offset="0.18" stop-color="#0052CC"/>
<stop offset="1" stop-color="#2684FF"/>
</linearGradient>
<linearGradient id="paint1_linear_29_1064" x1="776.603" y1="901.425" x2="1212.74" y2="1182.07" gradientUnits="userSpaceOnUse">
<stop offset="0.18" stop-color="#0052CC"/>
<stop offset="1" stop-color="#2684FF"/>
</linearGradient>
<clipPath id="clip0_29_1064">
<rect width="20" height="21" fill="white" transform="translate(0.499969 0.499966)"/>
</clipPath>
</defs>
</svg>
