<svg width="21" height="21" viewBox="0 0 21 21" fill="none" xmlns="http://www.w3.org/2000/svg">
<g clip-path="url(#clip0_29_1124)">
<path fill-rule="evenodd" clip-rule="evenodd" d="M7.83259 0.499969C6.72702 0.500805 5.83227 1.4186 5.83308 2.54955C5.83227 3.6805 6.72784 4.5983 7.83341 4.59913H9.83374V2.55039C9.83456 1.41944 8.93898 0.501641 7.83259 0.499969C7.83341 0.499969 7.83341 0.499969 7.83259 0.499969V0.499969ZM7.83259 5.96664H2.50002C1.39445 5.96747 0.49888 6.88527 0.499697 8.01622C0.498063 9.14717 1.39363 10.065 2.49921 10.0666H7.83259C8.93817 10.0658 9.83374 9.148 9.83292 8.01705C9.83374 6.88527 8.93817 5.96747 7.83259 5.96664Z" fill="#36C5F0"/>
<path fill-rule="evenodd" clip-rule="evenodd" d="M20.4999 8.01621C20.5008 6.88526 19.6052 5.96746 18.4996 5.96663C17.394 5.96746 16.4985 6.88526 16.4993 8.01621V10.0666H18.4996C19.6052 10.0658 20.5008 9.14799 20.4999 8.01621ZM15.1665 8.01621V2.54954C15.1674 1.41943 14.2726 0.501634 13.167 0.499962C12.0614 0.500798 11.1659 1.4186 11.1667 2.54954V8.01621C11.1651 9.14716 12.0606 10.065 13.1662 10.0666C14.2718 10.0658 15.1674 9.14799 15.1665 8.01621Z" fill="#2EB67D"/>
<path fill-rule="evenodd" clip-rule="evenodd" d="M13.1662 21C14.2717 20.9991 15.1673 20.0813 15.1665 18.9504C15.1673 17.8194 14.2717 16.9016 13.1662 16.9008H11.1658V18.9504C11.165 20.0805 12.0606 20.9983 13.1662 21ZM13.1662 15.5325H18.4995C19.6051 15.5316 20.5007 14.6138 20.4999 13.4829C20.5015 12.3519 19.6059 11.4341 18.5004 11.4325H13.167C12.0614 11.4333 11.1658 12.3511 11.1667 13.482C11.1658 14.6138 12.0606 15.5316 13.1662 15.5325Z" fill="#ECB22E"/>
<path fill-rule="evenodd" clip-rule="evenodd" d="M0.499909 13.4828C0.499092 14.6138 1.39466 15.5316 2.50024 15.5324C3.60581 15.5316 4.50138 14.6138 4.50056 13.4828V11.4333H2.50024C1.39466 11.4341 0.499092 12.3519 0.499909 13.4828ZM5.8333 13.4828V18.9495C5.83166 20.0805 6.72723 20.9983 7.83281 20.9999C8.93838 20.9991 9.83395 20.0813 9.83313 18.9503V13.4845C9.83477 12.3536 8.9392 11.4358 7.83362 11.4341C6.72723 11.4341 5.83248 12.3519 5.8333 13.4828C5.8333 13.4837 5.8333 13.4828 5.8333 13.4828Z" fill="#E01E5A"/>
</g>
<defs>
<clipPath id="clip0_29_1124">
<rect width="20" height="20.5" fill="white" transform="translate(0.499969 0.499969)"/>
</clipPath>
</defs>
</svg>
