<svg width="21" height="20" viewBox="0 0 21 20" fill="none" xmlns="http://www.w3.org/2000/svg">
<g clip-path="url(#clip0_29_1099)">
<path d="M10.5 -4.95911e-05C4.97694 -4.95911e-05 0.499969 4.47692 0.499969 9.99995C0.499969 15.523 4.97694 20 10.5 20C16.023 20 20.5 15.523 20.5 9.99995C20.5 4.4776 16.023 0.00063277 10.5 -4.95911e-05ZM15.0861 14.4223C14.9067 14.7171 14.5225 14.8092 14.2291 14.6298C11.8811 13.1948 8.92508 12.8706 5.44436 13.6656C5.10864 13.7427 4.77428 13.5325 4.69785 13.1968C4.62075 12.8611 4.83023 12.5267 5.16664 12.4503C8.97558 11.5803 12.2434 11.9549 14.8794 13.5653C15.1728 13.7461 15.2663 14.1289 15.0861 14.4223ZM16.3096 11.7004C16.0837 12.0675 15.6033 12.1821 15.2369 11.957C12.5498 10.305 8.45152 9.82663 5.2724 10.7915C4.86026 10.9164 4.42491 10.6837 4.29936 10.2722C4.17517 9.86007 4.40785 9.4254 4.81931 9.29985C8.45084 8.19783 12.966 8.73144 16.0523 10.6284C16.4195 10.8543 16.5355 11.334 16.3096 11.7004ZM16.4147 8.8645C13.1912 6.95048 7.87424 6.77443 4.7968 7.7079C4.30277 7.85802 3.78008 7.57893 3.63064 7.0849C3.4812 6.59088 3.75961 6.06819 4.25432 5.91807C7.7869 4.84608 13.6586 5.05283 17.3693 7.25549C17.8135 7.51957 17.9595 8.09343 17.6961 8.53697C17.4334 8.98187 16.8582 9.12858 16.4147 8.8645Z" fill="#2EBD59"/>
</g>
<defs>
<clipPath id="clip0_29_1099">
<rect width="20" height="20" fill="white" transform="translate(0.499969 -4.95911e-05)"/>
</clipPath>
</defs>
</svg>
